<svg xmlns="http://www.w3.org/2000/svg" version="1.1" xmlns:xlink="http://www.w3.org/1999/xlink" xmlns:svgjs="http://svgjs.dev/svgjs" width="2000" height="823" viewBox="0 0 2000 823"><g transform="matrix(1,0,0,1,-1.2121212121212466,0.054295941252917146)"><svg viewBox="0 0 396 163" data-background-color="#ffffff" preserveAspectRatio="xMidYMid meet" height="823" width="2000" xmlns="http://www.w3.org/2000/svg" xmlns:xlink="http://www.w3.org/1999/xlink"><g id="tight-bounds" transform="matrix(1,0,0,1,0.2400000000000091,-0.01075363113514527)"><svg viewBox="0 0 395.52 163.0215072622703" height="163.0215072622703" width="395.52"><g><svg viewBox="0 0 395.52 163.0215072622703" height="163.0215072622703" width="395.52"><g transform="matrix(1,0,0,1,0,100.7538315865946)"><svg viewBox="0 0 395.52 62.267675675675676" height="62.267675675675676" width="395.52"><g id="textblocktransform"><svg viewBox="0 0 395.52 62.267675675675676" height="62.267675675675676" width="395.52" id="textblock"><g><svg viewBox="0 0 395.52 62.267675675675676" height="62.267675675675676" width="395.52"><g transform="matrix(1,0,0,1,0,0)"><svg width="395.52" viewBox="-4.85 -34.95 221.98999999999998 34.95" height="62.267675675675676" data-palette-color="#000000"><path d="M36.15-2.15L41.95-2.15 41.95 0 30.8 0 27.3-7.95 9.8-7.95 6.3 0-4.85 0-4.85-2.15 0.95-2.15 15.4-34.95 21.7-34.95 36.15-2.15ZM12.2-13.4L24.9-13.4 18.55-27.8 12.2-13.4ZM69.9-2.15L74.75-2.15 74.75 0 63.95 0 55.6-11.75 47.85-11.75 47.85 0 37.1 0 37.1-2.15 41.95-2.15 41.95-34.95 54.95-34.95Q62.95-34.95 66.4-32.25 69.85-29.55 69.85-23.6L69.85-23.6Q69.85-14.95 62.3-12.7L62.3-12.7 69.9-2.15ZM55.2-17.1Q60.2-17.1 62-18.65 63.8-20.2 63.8-23.63 63.8-27.05 61.95-28.33 60.1-29.6 55.35-29.6L55.35-29.6 47.85-29.6 47.85-17.1 55.2-17.1ZM117.8-2.15L122.65-2.15 122.65 0 111.9 0 111.9-27.3 99.7-3.05 96.4-3.05 84.25-27.3 84.25 0 73.5 0 73.5-2.15 78.34-2.15 78.34-34.95 87.55-34.95 98.09-13 108.65-34.95 117.8-34.95 117.8-2.15ZM158.79-2.15L164.59-2.15 164.59 0 153.44 0 149.94-7.95 132.44-7.95 128.94 0 117.79 0 117.79-2.15 123.59-2.15 138.04-34.95 144.34-34.95 158.79-2.15ZM134.84-13.4L147.54-13.4 141.19-27.8 134.84-13.4ZM159.74-2.15L164.59-2.15 164.59-34.95 170.49-34.95 190.79-8.85 190.79-34.95 196.69-34.95 196.69-2.15 201.54-2.15 201.54 0 190.29 0 170.49-25.5 170.49 0 159.74 0 159.74-2.15ZM201.54-2.15L206.39-2.15 206.39-34.95 212.29-34.95 212.29-2.15 217.14-2.15 217.14 0 201.54 0 201.54-2.15Z" opacity="1" transform="matrix(1,0,0,1,0,0)" fill="#000000" class="wordmark-text-0" data-fill-palette-color="primary" id="text-0"></path></svg></g></svg></g></svg></g></svg></g><g transform="matrix(1,0,0,1,94.81902319066523,0)"><svg viewBox="0 0 205.8819536186695 86.05392778378379" height="86.05392778378379" width="205.8819536186695"><g><svg xmlns="http://www.w3.org/2000/svg" xmlns:xlink="http://www.w3.org/1999/xlink" version="1.1" x="0" y="0" viewBox="0.237 29.2 99.527 41.599999999999994" enable-background="new 0 0 100 100" xml:space="preserve" height="86.05392778378379" width="205.8819536186695" class="icon-icon-0" data-fill-palette-color="accent" id="icon-0"><path fill="#d2d6dc" d="M80.125 58.631C81.395 58.631 83.021 57.792 83.758 56.757L86.731 52.578H57.938L53.633 58.631z" data-fill-palette-color="accent"></path><path fill="#d2d6dc" d="M86.686 49.528C87.956 49.528 89.582 48.689 90.319 47.653L93.291 43.474H64.444L60.139 49.528z" data-fill-palette-color="accent"></path><path fill="#d2d6dc" d="M13.27 52.578L16.243 56.757C16.978 57.792 18.606 58.631 19.875 58.631H46.367L42.062 52.578z" data-fill-palette-color="accent"></path><path fill="#d2d6dc" d="M6.71 43.475L9.682 47.654C10.417 48.69 12.045 49.529 13.314 49.529H39.86L35.555 43.475z" data-fill-palette-color="accent"></path><path fill="#d2d6dc" d="M56.482 43.475H43.518L37.097 34.372H0.237L3.207 38.551C3.944 39.587 5.57 40.426 6.842 40.426H37.096L49.99 58.631 62.904 40.425H93.159C94.43 40.425 96.056 39.586 96.794 38.55L99.764 34.371H62.903z" data-fill-palette-color="accent"></path><path fill="#d2d6dc" d="M57.79 33.538L55.152 30.002C54.822 29.559 54.107 29.2 53.554 29.2H47.23L45.126 40.425H54.86L53.578 33.538z" data-fill-palette-color="accent"></path><polygon fill="#d2d6dc" points="45.389,61.681 38.885,70.8 61.112,70.8 54.629,61.681 " data-fill-palette-color="accent"></polygon></svg></g></svg></g><g></g></svg></g><defs></defs></svg><rect width="395.52" height="163.0215072622703" fill="none" stroke="none" visibility="hidden"></rect></g></svg></g></svg>