<?xml version="1.0" ?><svg viewBox="0 0 40 40" xmlns="http://www.w3.org/2000/svg"><g id="Logos"><g id="Prada"><path d="M8.6,17.69H5.12s-.12,0-.12,0a.07.07,0,0,0,.07.06.59.59,0,0,1,.47.63v3.14a.57.57,0,0,1-.47.63c-.05,0-.07,0-.07.07s.09.06.12.06H7.27s.12,0,.12-.06,0-.05-.07-.07a.58.58,0,0,1-.48-.59V20.54H8.6a1.43,1.43,0,1,0,0-2.85ZM8,20.2H6.84V18H8c.48,0,.85.49.85,1.11S8.48,20.2,8,20.2Z"/><path d="M34.93,22.2a.85.85,0,0,1-.28-.12.72.72,0,0,1-.26-.26L32,17.67H30.19s-.05,0-.05,0,0,.05.05.07a.89.89,0,0,1,.26.09,1.55,1.55,0,0,1,.55.56l.19.33-1.34,2.8-.12.26a.81.81,0,0,1-.26.26.94.94,0,0,1-.28.12c-.06,0-.07,0-.07.07s.08.06.12.06h1s.12,0,.12-.06,0-.05,0-.07-.2-.08-.21-.19,0-.21.15-.49.25-.51.27-.58v0h2c.13.25.25.5.37.75s.12.23.09.35a.29.29,0,0,1-.21.19s-.07,0-.07.08.1,0,.14,0h2.09s.12,0,.12,0S35,22.22,34.93,22.2Zm-4.29-1.58.74-1.54.09.14.83,1.4Z"/><path d="M26.29,17.69H23.64c-.06,0-.14,0-.14,0a.07.07,0,0,0,.07.05.62.62,0,0,1,.49.6v3.22a.58.58,0,0,1-.49.59s-.07,0-.07.07.08.06.14.06h2.65A2.32,2.32,0,1,0,26.29,17.69Zm.82,3.37a.89.89,0,0,1-.89.9h-.88V18h.88a.91.91,0,0,1,.89.9Z"/><path d="M23,22.2a.86.86,0,0,1-.3-.12.6.6,0,0,1-.24-.26l-2.35-4.15H18.26s-.05,0-.07,0,0,.05,0,.07a1.08,1.08,0,0,1,.29.09,1.71,1.71,0,0,1,.54.56l.19.33-1.35,2.8-.12.26a.78.78,0,0,1-.25.26.86.86,0,0,1-.3.12s-.07,0-.07.07.11.06.14.06h1s.14,0,.14-.06,0-.05-.07-.07a.29.29,0,0,1-.21-.19c0-.14,0-.21.16-.49s.24-.51.26-.58l0,0h2c.12.24.26.49.38.75s.11.23.07.35-.1.16-.19.19-.07,0-.07.08.09,0,.12,0h2.09s.14,0,.14,0S23,22.22,23,22.2Zm-4.3-1.58.74-1.54.09.14.82,1.4Z"/><path d="M16.66,22.22l-.12-.1L15,20.8a2.39,2.39,0,0,1-1.65-.26h1.12a1.43,1.43,0,0,0,1.41-1.43h0a1.42,1.42,0,0,0-1.42-1.41H11s-.14,0-.14,0a.09.09,0,0,0,.07.06.61.61,0,0,1,.49.68v3a.61.61,0,0,1-.49.68s-.07,0-.07.07.09.06.14.06h2.13s.12,0,.12-.06,0-.05,0-.07c-.37-.12-.48-.31-.49-.58V20.54l1,.79,1.21,1h1.62s.12,0,.12-.06A.06.06,0,0,0,16.66,22.22ZM12.75,18h1.12a1,1,0,0,1,.84,1.11c0,.63-.38,1.12-.84,1.12H12.75Z"/></g></g></svg>